<?xml version="1.0" encoding="UTF-8"?>
<svg id="Layer_2" data-name="Layer 2" xmlns="http://www.w3.org/2000/svg" xmlns:xlink="http://www.w3.org/1999/xlink" viewBox="0 0 1622.74 714.26">
  <defs>
    <style>
      .cls-1 {
        fill: url(#linear-gradient-2);
      }

      .cls-2 {
        fill: #fff;
      }

      .cls-3 {
        fill: url(#linear-gradient-6);
      }

      .cls-4 {
        fill: #070b0f;
      }

      .cls-5 {
        fill: none;
        stroke: #fff;
        stroke-linecap: round;
        stroke-linejoin: round;
        stroke-width: 15px;
      }

      .cls-6 {
        fill: url(#linear-gradient-11);
      }

      .cls-7 {
        fill: url(#linear-gradient-10);
      }

      .cls-8 {
        fill: url(#linear-gradient-5);
      }

      .cls-9 {
        fill: url(#linear-gradient-7);
      }

      .cls-10 {
        fill: url(#linear-gradient-9);
      }

      .cls-11 {
        fill: url(#linear-gradient-3);
      }

      .cls-12 {
        fill: url(#linear-gradient);
      }

      .cls-13 {
        fill: url(#linear-gradient-4);
      }

      .cls-14 {
        fill: url(#linear-gradient-8);
      }

      .cls-15 {
        fill: url(#linear-gradient-12);
      }
    </style>
    <linearGradient id="linear-gradient" x1="70.49" y1="378.95" x2="90.78" y2="516.58" gradientUnits="userSpaceOnUse">
      <stop offset="0" stop-color="#00aeef"/>
      <stop offset=".07" stop-color="#009fe2"/>
      <stop offset=".23" stop-color="#0081ca"/>
      <stop offset=".38" stop-color="#006cb9"/>
      <stop offset=".54" stop-color="#0060ae"/>
      <stop offset=".69" stop-color="#005cab"/>
    </linearGradient>
    <linearGradient id="linear-gradient-2" x1="122.35" y1="314.75" x2="181.45" y2="659.36" gradientUnits="userSpaceOnUse">
      <stop offset="0" stop-color="#00aeef"/>
      <stop offset=".37" stop-color="#0093d8"/>
      <stop offset="1" stop-color="#005cab"/>
    </linearGradient>
    <linearGradient id="linear-gradient-3" x1="389.23" y1="363.09" x2="398.74" y2="418.55" xlink:href="#linear-gradient-2"/>
    <linearGradient id="linear-gradient-4" x1="387.3" y1="314.39" x2="441.13" y2="628.26" xlink:href="#linear-gradient-2"/>
    <linearGradient id="linear-gradient-5" x1="829.66" y1="527.05" x2="846.93" y2="627.75" xlink:href="#linear-gradient-2"/>
    <linearGradient id="linear-gradient-6" x1="916.89" y1="299.11" x2="959.88" y2="549.8" xlink:href="#linear-gradient-2"/>
    <linearGradient id="linear-gradient-7" x1="965.03" y1="414.05" x2="927.39" y2="435.4" gradientUnits="userSpaceOnUse">
      <stop offset="0" stop-color="#00aeef"/>
      <stop offset=".19" stop-color="#00a5e8"/>
      <stop offset=".49" stop-color="#008fd5"/>
      <stop offset=".86" stop-color="#006bb7"/>
      <stop offset="1" stop-color="#005cab"/>
    </linearGradient>
    <linearGradient id="linear-gradient-8" x1="752.88" y1="457.53" x2="751.98" y2="464.16" xlink:href="#linear-gradient-2"/>
    <linearGradient id="linear-gradient-9" x1="674.25" y1="299.38" x2="727.08" y2="607.42" xlink:href="#linear-gradient-2"/>
    <linearGradient id="linear-gradient-10" x1="1155.38" y1="315.32" x2="1208.52" y2="625.15" xlink:href="#linear-gradient-2"/>
    <linearGradient id="linear-gradient-11" x1="1416.73" y1="323.7" x2="1476.57" y2="672.59" xlink:href="#linear-gradient-2"/>
    <linearGradient id="linear-gradient-12" x1="1483.97" y1="385.37" x2="1494.46" y2="472.07" gradientUnits="userSpaceOnUse">
      <stop offset="0" stop-color="#00aeef"/>
      <stop offset=".96" stop-color="#005fad"/>
      <stop offset="1" stop-color="#005cab"/>
    </linearGradient>
  </defs>
  <g id="Layer_1-2" data-name="Layer 1">
    <g>
      <g>
        <path class="cls-4" d="m1622.07,462.39c3.13-31.47-4.99-55.08-19.69-72.62l-23.68-28.91c-24.25-29.62-66.24-42.85-102.87-48.81V49.51c0-13.7-3.71-25.37-11.11-35.03-7.42-9.65-16.37-14.48-26.88-14.48h-78.82v323.5c-2.54,1.6-4.96,3.31-7.27,5.16V49.51c0-13.7-3.71-25.37-11.12-35.03-7.41-9.65-16.36-14.48-26.87-14.48h-40.02c-10.78,0-19.94,4.92-27.48,14.75-7.55,9.83-11.32,21.77-11.32,35.81v257.52c-2.41-.66-4.83-1.27-7.27-1.84V0h-54.57v304.43c0,.74-.08,1.41-.25,2.02-.23.85-.61,1.58-1.16,2.19-.95,1.06-2.09,1.41-3.44,1.06-1.64-.27-2.65-1.35-3.05-3.24-.12-.6-.18-1.27-.18-2.03V0h-54.16v310.58c-2.5,1.09-4.93,2.25-7.27,3.5V49.51c0-13.7-3.71-25.37-11.12-35.03-7.41-9.65-16.37-14.48-26.88-14.48h-40.01c-10.78,0-19.94,4.92-27.49,14.75-7.54,9.83-11.31,21.77-11.31,35.81v257.02c-2.37-1.44-4.79-2.8-7.27-4.09v-75.43c0-12.64-3.24-23.7-9.7-33.18l-7.28-10.54,7.28-10.53c6.46-9.48,9.7-20.54,9.7-33.18V50.56c0-14.04-3.78-25.98-11.32-35.81-7.55-9.83-16.71-14.75-27.49-14.75h-78v292.89c-2.19.56-4.34,1.16-6.47,1.81v-135.11h-58.91v62.92h7.75v87.19h-5.53l-1.82-1.43c-1.1-.84-2.21-1.66-3.33-2.45V58.99h10.68v48.46h51.16v-57.94c0-13.7-3.7-25.36-11.11-35.03-7.42-9.65-16.37-14.48-26.88-14.48h-40.82c-10.51,0-19.47,4.83-26.88,14.48-7.42,9.67-11.12,21.33-11.12,35.03v233.54c-2.39-.44-4.82-.82-7.27-1.14v-53.85c0-12.64-3.23-23.7-9.7-33.18l-7.28-10.54,7.28-10.53c6.47-9.48,9.7-20.54,9.7-33.18V50.56c0-14.04-3.78-25.98-11.32-35.81-7.54-9.83-16.71-14.75-27.48-14.75h-78.01v307.27c-2.21,1.54-4.37,3.14-6.47,4.8v-2.37h-34.35v-100.6h34.35v-49.51h-34.35V58.99h34.35V0h-89.32v341.79l-9.01-9.14c.9-4.25,1.34-8.74,1.34-13.47V49.51c0-13.7-3.71-25.37-11.12-35.03-7.41-9.65-16.37-14.48-26.88-14.48h-78.81v297.65c-2.45.61-4.88,1.3-7.28,2.07V49.51c0-13.7-3.7-25.37-11.11-35.03-7.42-9.65-16.37-14.48-26.88-14.48h-40.01c-10.78,0-19.95,4.92-27.49,14.75-7.55,9.83-11.32,21.77-11.32,35.81v287.7l-8.45-7.21c.79-4.09,1.18-8.4,1.18-12.93V0h-54.56v304.43c0,1.76-.48,3.16-1.42,4.21-.94,1.06-2.09,1.41-3.43,1.06-2.16-.35-3.24-2.11-3.24-5.27V0h-54.16v297.34c-7.94.12-15.57.52-22.71,1.08C14.37,307.05-6.54,359.95,1.56,462.99c1.77,22.64,4.31,45.23,6.09,67.87,1.72,21.89,3.47,44.16,7.45,65.87,5.24,28.07,13.15,51.37,30.25,65.98l28.49,24.34c13.84,11.82,33.68,17.86,62.37,15.61,28.68-2.26,51.26-9.73,66.34-35.21l11.81,10.08c2.91,3.19,6.16,5.97,10.14,8.32,10.03,6.8,21.53,8.18,31.35,7.41,30.36-2.39,57.81-27.93,70.66-57.47l5.29,5.36c11.74,11.39,27.28,19.34,48,19.34,25.9,0,48.69-10.02,61.12-33.16l14.51,14.51c11.74,11.39,27.97,18.65,50.42,18.65,39.77,0,60.48-26.57,71.04-59.49,4.93,8.63,11.1,16.34,18.91,22.41l27.84,21.61c13.33,10.35,31.36,15.86,56.78,12.66,33.43-4.21,64.97-20.56,60.15-58.87-.88-6.96-2.84-14.14-5.51-21.24,8.99,3.04,19.17,4.97,30.73,4.92,5.77,18.35,14.53,35.74,29.22,47.28l27.71,21.78c13.27,10.42,31.27,16.04,56.71,12.99,33.45-4.01,65.09-20.18,60.49-58.51-.83-6.97-2.76-14.17-5.38-21.27,12.17,4.19,26.57,6.35,43.64,4.3,31.43-3.77,56.31-19.1,73.69-40.83,5.69,28.62,15.47,49.76,30.26,64.55l24.52,24.52c19.34,19.68,48,28.32,88.75,28.32,31.82,0,82.36-2.71,115.65-22.01.98,1.46,2.04,2.88,3.17,4.26l23.34,28.5c11.33,13.84,29.48,23.12,57.61,25.92,28.14,2.8,51.28-.51,70.3-22.54l9.66,11.8c2.26,3.59,4.93,6.85,8.38,9.81,8.52,8.32,19.4,11.65,29.03,12.61,42.94,4.27,88.39-39.06,92.51-80.53,2.25-22.59-8.2-41.57-19.91-55.45l-24.3-30.09,1.96-.92c34.83-15.6,55.48-46.45,59.27-84.59ZM450.04,64.26c0-1.76.4-3.16,1.21-4.22.81-1.05,1.88-1.4,3.23-1.05,2.16.35,3.24,2.11,3.24,5.27v240.17c0,1.81-.34,3.16-1.03,4.03-.64.83-1.58,1.24-2.81,1.24-2.03,0-3.25-1.1-3.67-3.31-.11-.58-.17-1.23-.17-1.96V64.26Zm-124.09,0c0-1.76.41-3.16,1.22-4.22.8-1.05,1.88-1.4,3.23-1.05,2.15.35,3.23,2.11,3.23,5.27v267.81c-1.09,1.02-2.16,2.06-3.21,3.11-1.53,1.52-3.02,3.08-4.47,4.66V64.26Zm-100.34,587.32c-27.55,2.17-40.56-18.46-51.18-81.04-7.77-45.72-17.48-72.67-25.4-72.05-6.8.53-2.49,7.03,3.26,22.15,11.89,30.58,20.42,81.18,7.61,111.42-6.74,15.72-20.34,26.28-53.93,28.92-62.27,4.89-73.33-29.55-81.34-131.45-9.58-121.91-32.7-203.63,100.9-214.13,7.39-.58,14.51-.93,21.37-1.07,51.88-1.01,88.39,10.73,108.78,34.8,10.91,12.87,17.2,29.27,18.76,49.13,5.75,73.22-57.81,85.8-56.81,98.64.78,9.84,39.82,22.95,59.52,48.63,2.07,13.75,5.33,27.49,10.37,39.92-4.56,28.68-29.27,63.57-61.91,66.13Zm48.8-133.34s-.01.02,0,.04l-.03-.02.03-.02Zm206.92,102.19c-36.95,0-58.71-20.72-58.71-88.06,0-11.06.69-40.41-4.49-40.41s-4.14,28.32-4.14,40.41c0,69.06-21.76,88.06-58.71,88.06-7.93,0-15.49-1.48-22.48-4.73-20.72-9.61-36.4-34.75-41.61-82.88-.89-8.17-1.47-17-1.72-26.53-.1-3.64-.15-7.38-.15-11.22,0-44.07,8.96-80.03,23.22-108.15,3.29-6.49,6.87-12.57,10.69-18.23.89-1.32,1.79-2.63,2.72-3.91,2.47-3.45,5.04-6.73,7.68-9.85,15.98-18.85,34.87-31.73,54.16-38.8,2.42-.89,4.85-1.68,7.28-2.39,9.49-2.75,19-4.12,28.24-4.12,28.81,0,58.02,12.74,80.82,39.63,5.56,6.53,10.72,13.9,15.42,22.13,3.08,5.4,5.96,11.17,8.6,17.31,11.92,27.68,19.14,62.97,19.14,106.38,0,95.66-29.01,125.36-65.96,125.36ZM916.86,58.99h8.08v100.6h-8.08V58.99Zm0,150.11h8.08v79.01c-2.66-.23-5.35-.41-8.08-.51v-78.5Zm-247.36-150.11h8.09v100.6h-8.09V58.99Zm0,150.11h8.09v73.7c-2.74.42-5.44.91-8.09,1.47v-75.17Zm93.96,332.31c-2.22.62-4.48,1.18-6.77,1.65-2.54.53-5.13.96-7.77,1.29-31.34,3.94-53.6-7.05-73.99-28.53-7.76-8.23-13.33-13.18-16.12-12.83-2.43.31,2.62,6.74,7.72,13.53,20.44,27.49,33.14,55.25,30.72,72.54-1.99,15.11-15.3,27.39-46.64,31.34-36.84,4.64-55.85-11.33-67.66-44.31h0c-8.41-23.46-13.18-55.51-18.14-94.87-3.25-25.8-2.1-50.15,2.91-72.18h0c1.59-7.04,3.57-13.83,5.94-20.35,7.83-21.7,19.8-40.48,35.21-55.32,2.09-2.02,4.25-3.97,6.47-5.82,15.29-12.89,33.53-22.19,54.16-27.07,2.66-.64,5.35-1.19,8.09-1.67,2.31-.41,4.65-.76,7.02-1.06,17.61-2.22,33.41-2.1,47.54-.05,2.47.35,4.9.77,7.27,1.25,24.44,4.89,43.53,15.83,58.1,30.42,2.41,2.42,4.7,4.94,6.86,7.55,1.27,1.5,2.48,3.04,3.66,4.61,2.25,3,4.36,6.11,6.33,9.3,3.44,5.57,6.45,11.41,9.06,17.44,6.47,14.91,10.5,30.96,12.52,46.97,7.03,55.83-19,105.84-64.02,123.32-2.75,1.08-5.58,2.02-8.47,2.85Zm133.2,54.61c-2.08,15.09-15.46,27.3-46.82,31.06-37.31,4.48-56.23-12.05-67.82-45.91,38.35-5.9,66.48-29.23,82.67-60.13.55.74,1.12,1.5,1.68,2.26,20.28,27.61,32.81,55.45,30.29,72.72Zm51.93-44.41c-31.36,3.76-53.55-7.36-73.81-28.97-2.69-2.88-5.11-5.36-7.25-7.36,11.22-24.22,15.45-52.47,11.93-80.41-4.24-33.6-15.41-61.68-32.46-83.27-.64-.81-1.28-1.61-1.94-2.4-.11-.14-.22-.27-.34-.41-.52-.63-1.04-1.25-1.59-1.86-.01-.03-.03-.05-.07-.08-.3-.36-.61-.71-.93-1.06-.02-.03-.04-.06-.08-.09-.49-.56-.99-1.11-1.49-1.65-.2-.21-.39-.42-.59-.63-.67-.72-1.35-1.42-2.03-2.12h0c-.54-.56-1.08-1.11-1.63-1.64-.54-.55-1.09-1.08-1.65-1.6-.7-.67-1.41-1.33-2.12-1.97-.1-.1-.2-.19-.31-.28-.49-.45-.98-.89-1.48-1.32-.6-.53-1.21-1.05-1.82-1.56-.53-.45-1.07-.89-1.61-1.33-.69-.57-1.4-1.13-2.11-1.68l-1.79-1.41c9.92-7.15,20.9-12.9,32.81-17.07,2.13-.75,4.28-1.45,6.47-2.09,7.36-2.17,15.05-3.75,23.04-4.71,11.08-1.33,21.44-1.74,31.12-1.33,2.75.12,5.44.3,8.08.54,21.74,2.03,39.78,8.39,54.57,17.78,2.72,1.72,5.32,3.54,7.82,5.46,14.47,11.11,25.38,25.37,33.28,41.23,8.49,17.03,13.53,35.9,15.78,54.7,7.77,64.81-28.91,121.53-87.8,128.59Zm100.84-247.18c0,3.51-1.29,5.27-3.84,5.27s-3.84-1.76-3.84-5.27V64.26c0-1.76.4-3.16,1.21-4.22.81-1.05,1.88-1.4,3.23-1.05,2.16.35,3.24,2.11,3.24,5.27v240.17Zm240.48-240.17c0-1.76.4-3.16,1.21-4.22.81-1.05,1.88-1.4,3.24-1.05,2.15.35,3.23,2.11,3.23,5.27v280.86l-7.57-7.57s-.07-.07-.11-.11V64.26Zm6.78,525.56c-17.35,24.84-62.63,35.74-125.81,35.74-68.8,0-96.78-24.57-106.31-96.7-3.04-23.08-4.2-51.03-4.2-84.6,0-20.37,1.9-38.25,5.74-53.69,2.1-8.41,4.77-16.09,8.03-23.05,6.77-14.47,16.07-25.86,27.98-34.25,2.92-2.06,6-3.94,9.24-5.63,15.57-8.17,34.79-12.19,57.8-12.19,21.51,0,41.26,2.31,58.4,6.67,2.52.65,4.98,1.33,7.38,2.06,27.16,8.24,46.78,22.06,54.97,40.29,2.79,6.18,4.26,12.88,4.26,20.04,0,26.59-20.03,37.99-47.66,37.99-43.17,0-71.48,0-71.48,5.53s23.48,3.45,60.09,3.45c21.06,0,41.09,8.29,41.09,41.44s-20.03,41.09-41.09,41.09c-11.4,0-26.6-1.38-37.99-1.38s-19,1.04-19,5.18c0,8.29,47.32,9.33,78.74,9.33,18.16,0,33.04,4.92,41.1,15.55,4.21,5.54,6.56,12.64,6.56,21.4,0,9.85-2.69,18.4-7.84,25.73Zm117.3-525.56c0-1.76.41-3.16,1.21-4.22.81-1.05,1.88-1.4,3.24-1.05,2.15.35,3.23,2.11,3.23,5.27v240.17c0,1.37-.2,2.47-.59,3.31-.61,1.31-1.69,1.96-3.25,1.96-1.46,0-2.5-.57-3.13-1.72-.47-.86-.71-2.05-.71-3.55V64.26Zm150.73,538.62c-2.91,29.25-37.17,69.21-74.2,65.53-27.02-2.69-36.03-24.9-35.43-87.28.42-45.58-4.3-73.34-12.07-74.11-6.66-.67-3.62,6.37-.69,21.99,6.2,31.65,5.66,82.07-11.98,109.11-9.25,14.03-24.24,21.89-57.19,18.61-24.05-2.39-39.36-9.3-48.48-22.9-12.28-18.3-13.34-48.71-9.39-96.52.57-6.92,1.25-14.2,2.01-21.86,2.66-26.8,4.32-51.76,6.77-74.22,1.93-17.83,4.36-34.08,8.2-48.42,2.33-8.79,5.2-16.85,8.8-24.12,3-6.09,6.52-11.62,10.68-16.55,2.23-2.65,4.65-5.13,7.27-7.43,18.59-16.29,47.36-23.43,93.05-18.88,8.07.8,15.76,1.82,23.09,3.03,75.78,12.64,112.09,47.6,106.58,102.97-7.15,71.83-70.82,72.97-72.08,85.56-1.25,12.59,59.41,41.8,55.06,85.49Z"/>
        <path class="cls-4" d="m325.95,364.78v3.91h-2.72c.89-1.32,1.79-2.63,2.72-3.91Z"/>
        <path class="cls-2" d="m381.34,344.26c-11.8,5.92-22.33,14.3-30.75,24.43-1.35,1.61-2.64,3.26-3.87,4.96-1.47,2.02-3.76,3.09-6.08,3.09-1.53,0-3.07-.46-4.4-1.43-2.79-2.03-3.77-5.62-2.61-8.71.23-.61.54-1.2.95-1.76,10.39-14.31,24.23-26.06,40.04-33.99,3.7-1.85,8.21-.36,10.06,3.34,1.86,3.71.36,8.21-3.34,10.07Z"/>
        <path class="cls-2" d="m652.36,337.01c-14.51,7.23-27.04,18.31-36.19,31.68-2.75,4.02-5.2,8.25-7.3,12.64-1.12,2.33-2.13,4.7-3.05,7.11-.03.09-.07.17-.1.25-1.2,2.85-3.98,4.59-6.92,4.59-.88,0-1.78-.15-2.66-.49-1.99-.76-3.48-2.28-4.24-4.1-.73-1.71-.82-3.7-.11-5.57,4.07-10.72,9.89-20.77,17.08-29.72,2.04-2.55,4.2-5.01,6.47-7.38,8.73-9.13,19.01-16.79,30.33-22.43,3.71-1.85,8.21-.35,10.06,3.36,1.85,3.71.34,8.21-3.37,10.06Z"/>
      </g>
      <path class="cls-5" d="m796.97,368.69c-1.17,2.2-2.13,4.51-2.87,6.9"/>
      <g>
        <path class="cls-12" d="m108.51,330.66c-9.26-1.96-19.06.56-26.23,6.73-3.14,2.71-3.49,7.44-.79,10.58,1.48,1.72,3.58,2.61,5.69,2.61,1.73,0,3.47-.6,4.89-1.82,3.59-3.09,8.7-4.41,13.33-3.42,4.06.85,8.04-1.73,8.9-5.79.85-4.05-1.73-8.03-5.79-8.89Zm-44.86,14.14c-14.66,6.19-26.55,21.86-32.63,42.98-5.67,19.69-5.37,41.27.81,57.71,1.13,3.01,3.99,4.86,7.03,4.86.87,0,1.76-.15,2.63-.48,3.88-1.45,5.84-5.78,4.38-9.66-10.85-28.88,1.73-72.35,23.61-81.59,3.82-1.61,5.61-6.01,4-9.82-1.62-3.82-6.02-5.61-9.83-4Z"/>
        <path class="cls-1" d="m277.15,545.53c-19.7-25.68-58.74-38.79-59.52-48.63-1-12.84,62.56-25.42,56.81-98.64-1.56-19.86-7.85-36.26-18.76-49.13-20.39-24.07-56.9-35.81-108.78-34.8-6.86.14-13.98.49-21.37,1.07-133.6,10.5-110.48,92.22-100.9,214.13,8.01,101.9,19.07,136.34,81.34,131.45,33.59-2.64,47.19-13.2,53.93-28.92,12.81-30.24,4.28-80.84-7.61-111.42-5.75-15.12-10.06-21.62-3.26-22.15,7.92-.62,17.63,26.33,25.4,72.05,10.62,62.58,23.63,83.21,51.18,81.04,32.64-2.56,57.35-37.45,61.91-66.13-5.04-12.43-8.3-26.17-10.37-39.92Zm-207.67-186.91c-21.88,9.24-34.46,52.71-23.61,81.59,1.46,3.88-.5,8.21-4.38,9.66-.87.33-1.76.48-2.63.48-3.04,0-5.9-1.85-7.03-4.86-6.18-16.44-6.48-38.02-.81-57.71,6.08-21.12,17.97-36.79,32.63-42.98,3.81-1.61,8.21.18,9.83,4,1.61,3.81-.18,8.21-4,9.82Zm44.82-19.07c-.86,4.06-4.84,6.64-8.9,5.79-4.63-.99-9.74.33-13.33,3.42-1.42,1.22-3.16,1.82-4.89,1.82-2.11,0-4.21-.89-5.69-2.61-2.7-3.14-2.35-7.87.79-10.58,7.17-6.17,16.97-8.69,26.23-6.73,4.06.86,6.64,4.84,5.79,8.89Zm62.09,110.84c-5.66.45,11.24-16.45,8.98-45.14-1.77-22.58-14.13-36.09-16.54-41.03-.66-1.34-.58-2.05.62-2.14,2.38-.19,6.47,1.9,10.68,6.27,6.5,6.71,13.31,18.78,14.68,36.16,2.25,28.69-12.39,45.41-18.42,45.88Z"/>
        <path class="cls-4" d="m176.39,450.39c-5.66.45,11.24-16.45,8.98-45.14-1.77-22.58-14.13-36.09-16.54-41.03-.66-1.34-.58-2.05.62-2.14,2.38-.19,6.47,1.9,10.68,6.27,6.5,6.71,13.31,18.78,14.68,36.16,2.25,28.69-12.39,45.41-18.42,45.88Z"/>
      </g>
      <path class="cls-11" d="m417.1,384.22c-30.05,0-46.63,18.3-46.63,25.21s16.58-16.58,46.63-16.58,46.96,23.14,46.96,16.58c0-6.91-16.58-25.21-46.96-25.21Zm-93.87-15.53h2.72v-3.91c-.93,1.28-1.83,2.59-2.72,3.91Z"/>
      <path class="cls-13" d="m528.15,388.69c-2.64-6.14-5.52-11.91-8.6-17.31-4.7-8.23-9.86-15.6-15.42-22.13-22.8-26.89-52.01-39.63-80.82-39.63-9.24,0-18.75,1.37-28.24,4.12-2.43.71-4.86,1.5-7.28,2.39-19.29,7.07-38.18,19.95-54.16,38.8-2.64,3.12-5.21,6.4-7.68,9.85v3.91h-2.72c-3.82,5.66-7.4,11.74-10.69,18.23-14.26,28.12-23.22,64.08-23.22,108.15,0,3.84.05,7.58.15,11.22.25,9.53.83,18.36,1.72,26.53,5.21,48.13,20.89,73.27,41.61,82.88,6.99,3.25,14.55,4.73,22.48,4.73,36.95,0,58.71-19,58.71-88.06,0-12.09-1.04-40.41,4.14-40.41s4.49,29.35,4.49,40.41c0,67.34,21.76,88.06,58.71,88.06s65.96-29.7,65.96-125.36c0-43.41-7.22-78.7-19.14-106.38Zm-133.76-67.54l.68-.22,7.31-2.33c3.94-1.26,8.16.92,9.42,4.86,1.26,3.95-.91,8.17-4.86,9.43l-7.98,2.55c-.76.24-1.53.36-2.29.36-.54,0-1.08-.06-1.6-.18-2.52-.55-4.69-2.4-5.54-5.04-1.26-3.95.92-8.17,4.86-9.43Zm-43.8,47.54c-1.35,1.61-2.64,3.26-3.87,4.96-1.47,2.02-3.76,3.09-6.08,3.09-1.53,0-3.07-.46-4.4-1.43-2.79-2.03-3.77-5.62-2.61-8.71.23-.61.54-1.2.95-1.76,10.39-14.31,24.23-26.06,40.04-33.99,3.7-1.85,8.21-.36,10.06,3.34,1.86,3.71.36,8.21-3.34,10.07-11.8,5.92-22.33,14.3-30.75,24.43Zm66.51,24.16c-30.05,0-46.63,23.14-46.63,16.58,0-6.91,16.58-25.21,46.63-25.21s46.96,18.3,46.96,25.21-16.58-16.58-46.96-16.58Z"/>
      <path class="cls-4" d="m417.1,384.22c-30.05,0-46.63,18.3-46.63,25.21s16.58-16.58,46.63-16.58,46.96,23.14,46.96,16.58c0-6.91-16.58-25.21-46.96-25.21Zm0,0c-30.05,0-46.63,18.3-46.63,25.21s16.58-16.58,46.63-16.58,46.96,23.14,46.96,16.58c0-6.91-16.58-25.21-46.96-25.21Zm0,0c-30.05,0-46.63,18.3-46.63,25.21s16.58-16.58,46.63-16.58,46.96,23.14,46.96,16.58c0-6.91-16.58-25.21-46.96-25.21Zm0,0c-30.05,0-46.63,18.3-46.63,25.21s16.58-16.58,46.63-16.58,46.96,23.14,46.96,16.58c0-6.91-16.58-25.21-46.96-25.21Zm0,0c-30.05,0-46.63,18.3-46.63,25.21s16.58-16.58,46.63-16.58,46.96,23.14,46.96,16.58c0-6.91-16.58-25.21-46.96-25.21Zm0,0c-30.05,0-46.63,18.3-46.63,25.21s16.58-16.58,46.63-16.58,46.96,23.14,46.96,16.58c0-6.91-16.58-25.21-46.96-25.21Zm0,0c-30.05,0-46.63,18.3-46.63,25.21s16.58-16.58,46.63-16.58,46.96,23.14,46.96,16.58c0-6.91-16.58-25.21-46.96-25.21Zm0,0c-30.05,0-46.63,18.3-46.63,25.21s16.58-16.58,46.63-16.58,46.96,23.14,46.96,16.58c0-6.91-16.58-25.21-46.96-25.21Zm0,0c-30.05,0-46.63,18.3-46.63,25.21s16.58-16.58,46.63-16.58,46.96,23.14,46.96,16.58c0-6.91-16.58-25.21-46.96-25.21Zm0,0c-30.05,0-46.63,18.3-46.63,25.21s16.58-16.58,46.63-16.58,46.96,23.14,46.96,16.58c0-6.91-16.58-25.21-46.96-25.21Zm0,0c-30.05,0-46.63,18.3-46.63,25.21s16.58-16.58,46.63-16.58,46.96,23.14,46.96,16.58c0-6.91-16.58-25.21-46.96-25.21Zm0,0c-30.05,0-46.63,18.3-46.63,25.21s16.58-16.58,46.63-16.58,46.96,23.14,46.96,16.58c0-6.91-16.58-25.21-46.96-25.21Zm0,0c-30.05,0-46.63,18.3-46.63,25.21s16.58-16.58,46.63-16.58,46.96,23.14,46.96,16.58c0-6.91-16.58-25.21-46.96-25.21Zm0,0c-30.05,0-46.63,18.3-46.63,25.21s16.58-16.58,46.63-16.58,46.96,23.14,46.96,16.58c0-6.91-16.58-25.21-46.96-25.21Zm0,0c-30.05,0-46.63,18.3-46.63,25.21s16.58-16.58,46.63-16.58,46.96,23.14,46.96,16.58c0-6.91-16.58-25.21-46.96-25.21Zm0,0c-30.05,0-46.63,18.3-46.63,25.21s16.58-16.58,46.63-16.58,46.96,23.14,46.96,16.58c0-6.91-16.58-25.21-46.96-25.21Z"/>
      <path class="cls-8" d="m896.66,596.02c-2.08,15.09-15.46,27.3-46.82,31.06-37.31,4.48-56.23-12.05-67.82-45.91,38.35-5.9,66.48-29.23,82.67-60.13.55.74,1.12,1.5,1.68,2.26,20.28,27.61,32.81,55.45,30.29,72.72Z"/>
      <path class="cls-3" d="m1036.39,423.02c-2.25-18.8-7.29-37.67-15.78-54.7-7.9-15.86-18.81-30.12-33.28-41.23-2.5-1.92-5.1-3.74-7.82-5.46-14.79-9.39-32.83-15.75-54.57-17.78-2.64-.24-5.33-.42-8.08-.54-9.68-.41-20.04,0-31.12,1.33-7.99.96-15.68,2.54-23.04,4.71-2.19.64-4.34,1.34-6.47,2.09-11.91,4.17-22.89,9.92-32.81,17.07l1.79,1.41c.71.55,1.42,1.11,2.11,1.68.54.44,1.08.88,1.61,1.33.61.51,1.22,1.03,1.82,1.56.5.43.99.87,1.48,1.32.11.09.21.18.31.28.27-.29.58-.56.91-.81,5.7-4.26,11.96-7.7,18.61-10.23.11-.05.23-.1.35-.14,1.22-.46,2.45-.88,3.68-1.27,1.6-.52,3.21-.97,4.81-1.37.6-.15,1.2-.29,1.8-.42,1.28-.29,2.55-.54,3.8-.74,4.08-.67,7.94,2.09,8.62,6.18.68,4.08-2.09,7.94-6.18,8.62-1.43.24-2.93.55-4.44.92-.6.15-1.2.31-1.8.48-1.57.44-3.13.95-4.68,1.52-.11.05-.23.09-.34.13-1.8.68-3.57,1.44-5.3,2.29-3.26,1.58-6.38,3.45-9.32,5.6.04.03.06.05.07.08.55.61,1.07,1.23,1.59,1.86.12.14.23.27.34.41.66.79,1.3,1.59,1.94,2.4,17.05,21.59,28.22,49.67,32.46,83.27,3.52,27.94-.71,56.19-11.93,80.41,2.14,2,4.56,4.48,7.25,7.36,20.26,21.61,42.45,32.73,73.81,28.97,58.89-7.06,95.57-63.78,87.8-128.59Zm-146.65-91.56h-1.5c-4.14,0-7.5-3.36-7.5-7.5s3.36-7.5,7.5-7.5h1.5c4.14,0,7.5,3.36,7.5,7.5s-3.36,7.5-7.5,7.5Zm62.34,140.2c-6.62.79,14.72-18.74,11.08-49.05-3.67-30.67-29.03-44.59-22.41-45.39,6.97-.83,27.45,13.68,31.13,44.34,3.63,30.32-12.83,49.26-19.8,50.1Z"/>
      <path class="cls-9" d="m952.08,471.66c-6.62.79,14.72-18.74,11.08-49.05-3.67-30.67-29.03-44.59-22.41-45.39,6.97-.83,27.45,13.68,31.13,44.34,3.63,30.32-12.83,49.26-19.8,50.1Z"/>
      <path class="cls-4" d="m971.88,421.56c-3.68-30.66-24.16-45.17-31.13-44.34-6.62.8,18.74,14.72,22.41,45.39,3.64,30.31-17.7,49.84-11.08,49.05,6.97-.84,23.43-19.78,19.8-50.1Zm0,0c-3.68-30.66-24.16-45.17-31.13-44.34-6.62.8,18.74,14.72,22.41,45.39,3.64,30.31-17.7,49.84-11.08,49.05,6.97-.84,23.43-19.78,19.8-50.1Zm0,0c-3.68-30.66-24.16-45.17-31.13-44.34-6.62.8,18.74,14.72,22.41,45.39,3.64,30.31-17.7,49.84-11.08,49.05,6.97-.84,23.43-19.78,19.8-50.1Zm0,0c-3.68-30.66-24.16-45.17-31.13-44.34-6.62.8,18.74,14.72,22.41,45.39,3.64,30.31-17.7,49.84-11.08,49.05,6.97-.84,23.43-19.78,19.8-50.1Zm0,0c-3.68-30.66-24.16-45.17-31.13-44.34-6.62.8,18.74,14.72,22.41,45.39,3.64,30.31-17.7,49.84-11.08,49.05,6.97-.84,23.43-19.78,19.8-50.1Zm-219.94,42.82c.46-.06.96-.19,1.49-.41.02-2.35.09-4.71.18-7.06-2.66,5.1-4.21,7.79-1.67,7.47Zm219.94-42.82c-3.68-30.66-24.16-45.17-31.13-44.34-6.62.8,18.74,14.72,22.41,45.39,3.64,30.31-17.7,49.84-11.08,49.05,6.97-.84,23.43-19.78,19.8-50.1Zm0,0c-3.68-30.66-24.16-45.17-31.13-44.34-6.62.8,18.74,14.72,22.41,45.39,3.64,30.31-17.7,49.84-11.08,49.05,6.97-.84,23.43-19.78,19.8-50.1Zm0,0c-3.68-30.66-24.16-45.17-31.13-44.34-6.62.8,18.74,14.72,22.41,45.39,3.64,30.31-17.7,49.84-11.08,49.05,6.97-.84,23.43-19.78,19.8-50.1Zm0,0c-3.68-30.66-24.16-45.17-31.13-44.34-6.62.8,18.74,14.72,22.41,45.39,3.64,30.31-17.7,49.84-11.08,49.05,6.97-.84,23.43-19.78,19.8-50.1Zm0,0c-3.68-30.66-24.16-45.17-31.13-44.34-6.62.8,18.74,14.72,22.41,45.39,3.64,30.31-17.7,49.84-11.08,49.05,6.97-.84,23.43-19.78,19.8-50.1Zm0,0c-3.68-30.66-24.16-45.17-31.13-44.34-6.62.8,18.74,14.72,22.41,45.39,3.64,30.31-17.7,49.84-11.08,49.05,6.97-.84,23.43-19.78,19.8-50.1Z"/>
      <path class="cls-2" d="m868.94,335.91c-1.43.24-2.93.55-4.44.92-.6.15-1.2.31-1.8.48-1.57.44-3.13.95-4.68,1.52-.11.05-.23.09-.34.13-1.8.68-3.57,1.44-5.3,2.29-3.26,1.58-6.38,3.45-9.32,5.6-.3-.36-.61-.71-.93-1.06-.02-.03-.04-.06-.08-.09-.49-.56-.99-1.11-1.49-1.65-.2-.21-.39-.42-.59-.63-.67-.72-1.35-1.42-2.03-2.12h0c-.54-.56-1.08-1.11-1.63-1.64-.54-.55-1.09-1.08-1.65-1.6-.7-.67-1.41-1.33-2.12-1.97.27-.29.58-.56.91-.81,5.7-4.26,11.96-7.7,18.61-10.23.11-.05.23-.1.35-.14,1.22-.46,2.45-.88,3.68-1.27,1.6-.52,3.21-.97,4.81-1.37.6-.15,1.2-.29,1.8-.42,1.28-.29,2.55-.54,3.8-.74,4.08-.67,7.94,2.09,8.62,6.18.68,4.08-2.09,7.94-6.18,8.62Z"/>
      <path class="cls-14" d="m751.94,464.38c.46-.06.96-.19,1.49-.41.02-2.35.09-4.71.18-7.06-2.66,5.1-4.21,7.79-1.67,7.47Z"/>
      <path class="cls-10" d="m835.95,415.24c-2.02-16.01-6.05-32.06-12.52-46.97-2.61-6.03-5.62-11.87-9.06-17.44-1.97-3.19-4.08-6.3-6.33-9.3-1.18-1.57-2.39-3.11-3.66-4.61-2.16-2.61-4.45-5.13-6.86-7.55-14.57-14.59-33.66-25.53-58.1-30.42-2.37-.48-4.8-.9-7.27-1.25-14.13-2.05-29.93-2.17-47.54.05-2.37.3-4.71.65-7.02,1.06-2.74.48-5.43,1.03-8.09,1.67-20.63,4.88-38.87,14.18-54.16,27.07-2.22,1.85-4.38,3.8-6.47,5.82-15.41,14.84-27.38,33.62-35.21,55.32-2.37,6.52-4.35,13.31-5.94,20.34h0c-5.01,22.04-6.16,46.39-2.91,72.19,4.96,39.36,9.73,71.41,18.14,94.86h0c11.81,32.99,30.82,48.96,67.66,44.32,31.34-3.95,44.65-16.23,46.64-31.34,2.42-17.29-10.28-45.05-30.72-72.54-5.1-6.79-10.15-13.22-7.72-13.53,2.79-.35,8.36,4.6,16.12,12.83,20.39,21.48,42.65,32.47,73.99,28.53,2.64-.33,5.23-.76,7.77-1.29,2.29-.47,4.55-1.03,6.77-1.65,2.89-.83,5.72-1.77,8.47-2.85,45.02-17.48,71.05-67.49,64.02-123.32Zm-183.59-78.23c-14.51,7.23-27.04,18.31-36.19,31.68-2.75,4.02-5.2,8.25-7.3,12.64-1.12,2.33-2.13,4.7-3.05,7.11-.03.09-.07.17-.1.25-1.2,2.85-3.98,4.59-6.92,4.59-.88,0-1.78-.15-2.66-.49-1.99-.76-3.48-2.28-4.24-4.1-.73-1.71-.82-3.7-.11-5.57,4.07-10.72,9.89-20.77,17.08-29.72,2.04-2.55,4.2-5.01,6.47-7.38,8.73-9.13,19.01-16.79,30.33-22.43,3.71-1.85,8.21-.35,10.06,3.36,1.85,3.71.34,8.21-3.37,10.06Zm45-22c-.25,4.13-3.81,7.3-7.93,7.05-4-.24-8.03.27-11.84,1.5-1.23.38-2.42.85-3.59,1.38-1.01.46-2.07.68-3.11.68-.47,0-.93-.04-1.39-.14-2.32-.43-4.39-1.94-5.44-4.25-1.72-3.77-.06-8.22,3.71-9.94.57-.26,1.15-.51,1.73-.74,2.62-1.08,5.33-1.91,8.09-2.5,4.17-.89,8.46-1.22,12.72-.97,4.13.25,7.29,3.79,7.05,7.93Zm65.92,139.48c-3.36,5.1-7.05,8.36-9.85,9.48-.53.22-1.03.35-1.49.41-2.54.32-.99-2.37,1.67-7.47.01,0,.01-.01.01-.01v-.03c4.28-8.27,11.46-22.91,9.11-41.61-.34-2.7-.85-5.28-1.49-7.72-1.04-3.96-2.42-7.58-3.98-10.87-8.44-17.73-22.3-26.02-17.21-26.66,4.25-.54,13.58,4.62,21.08,15.7,1.62,2.4,3.17,5.08,4.56,8.05h0c1.86,4.01,3.44,8.51,4.56,13.54.49,2.19.89,4.47,1.19,6.86,2.24,17.79-2.48,31.71-8.16,40.33Z"/>
      <g>
        <path class="cls-4" d="m751.94,464.38c.46-.06.96-.19,1.49-.41.02-2.35.09-4.71.18-7.06-2.66,5.1-4.21,7.79-1.67,7.47Zm0,0c.46-.06.96-.19,1.49-.41.02-2.35.09-4.71.18-7.06-2.66,5.1-4.21,7.79-1.67,7.47Zm0,0c.46-.06.96-.19,1.49-.41.02-2.35.09-4.71.18-7.06-2.66,5.1-4.21,7.79-1.67,7.47Zm0,0c.46-.06.96-.19,1.49-.41.02-2.35.09-4.71.18-7.06-2.66,5.1-4.21,7.79-1.67,7.47Zm0,0c.46-.06.96-.19,1.49-.41.02-2.35.09-4.71.18-7.06-2.66,5.1-4.21,7.79-1.67,7.47Zm0,0c.46-.06.96-.19,1.49-.41.02-2.35.09-4.71.18-7.06-2.66,5.1-4.21,7.79-1.67,7.47Zm0,0c.46-.06.96-.19,1.49-.41.02-2.35.09-4.71.18-7.06-2.66,5.1-4.21,7.79-1.67,7.47Zm0,0c.46-.06.96-.19,1.49-.41.02-2.35.09-4.71.18-7.06-2.66,5.1-4.21,7.79-1.67,7.47Zm0,0c.46-.06.96-.19,1.49-.41.02-2.35.09-4.71.18-7.06-2.66,5.1-4.21,7.79-1.67,7.47Zm0,0c.46-.06.96-.19,1.49-.41.02-2.35.09-4.71.18-7.06-2.66,5.1-4.21,7.79-1.67,7.47Z"/>
        <path class="cls-4" d="m763.28,454.49c-3.36,5.1-7.05,8.36-9.85,9.48.02-2.35.09-4.71.18-7.06.01,0,.01-.01.01-.01v-.03c4.28-8.27,11.46-22.91,9.11-41.61-.34-2.7-.85-5.28-1.49-7.72-1.04-3.96-2.42-7.58-3.98-10.87-8.44-17.73-22.3-26.02-17.21-26.66,4.25-.54,13.58,4.62,21.08,15.7,1.62,2.4,3.17,5.08,4.56,8.05h0c1.86,4.01,3.44,8.51,4.56,13.54.49,2.19.89,4.47,1.19,6.86,2.24,17.79-2.48,31.71-8.16,40.33Z"/>
      </g>
      <path class="cls-7" d="m1297.97,542.69c-8.06-10.63-22.94-15.55-41.1-15.55-31.42,0-78.74-1.04-78.74-9.33,0-4.14,7.95-5.18,19-5.18s26.59,1.38,37.99,1.38c21.06,0,41.09-7.94,41.09-41.09s-20.03-41.44-41.09-41.44c-36.61,0-60.09,2.07-60.09-3.45s28.31-5.53,71.48-5.53c27.63,0,47.66-11.4,47.66-37.99,0-7.16-1.47-13.86-4.26-20.04-8.19-18.23-27.81-32.05-54.97-40.29-2.4-.73-4.86-1.41-7.38-2.06-17.14-4.36-36.89-6.67-58.4-6.67-23.01,0-42.23,4.02-57.8,12.19-3.24,1.69-6.32,3.57-9.24,5.63-11.91,8.39-21.21,19.78-27.98,34.25-3.26,6.96-5.93,14.64-8.03,23.05-3.84,15.44-5.74,33.32-5.74,53.69,0,33.57,1.16,61.52,4.2,84.6,9.53,72.13,37.51,96.7,106.31,96.7,63.18,0,108.46-10.9,125.81-35.74,5.15-7.33,7.84-15.88,7.84-25.73,0-8.76-2.35-15.86-6.56-21.4Zm-171.77-188.15c-.94.46-1.87.94-2.79,1.46-19.05,10.58-31.87,31.7-32.2,53.54-.06,4.1-3.41,7.38-7.5,7.38h-.11c-4.15-.06-7.45-3.47-7.39-7.61.42-26.84,16.03-52.82,39.3-66.08,1.35-.77,2.72-1.5,4.12-2.18,3.73-1.82,8.22-.26,10.03,3.46,1.81,3.72.26,8.21-3.46,10.03Zm47.7-15.6c-.66,4.09-4.51,6.87-8.59,6.21-6.31-1.02-12.88-.58-19,1.26-.72.22-1.45.32-2.17.32-3.22,0-6.2-2.09-7.18-5.33-1.19-3.97,1.05-8.15,5.02-9.35,8.28-2.5,17.17-3.09,25.72-1.71,4.08.66,6.87,4.51,6.2,8.6Z"/>
      <path class="cls-6" d="m1581.74,431.83c5.51-55.37-30.8-90.33-106.58-102.97-7.33-1.21-15.02-2.23-23.09-3.03-45.69-4.55-74.46,2.59-93.05,18.88-2.62,2.3-5.04,4.78-7.27,7.43-4.16,4.93-7.68,10.46-10.68,16.55-3.6,7.27-6.47,15.33-8.8,24.12-3.84,14.34-6.27,30.59-8.2,48.42-2.45,22.46-4.11,47.42-6.77,74.22-.76,7.66-1.44,14.94-2.01,21.86-3.95,47.81-2.89,78.22,9.39,96.52,9.12,13.6,24.43,20.51,48.48,22.9,32.95,3.28,47.94-4.58,57.19-18.61,17.64-27.04,18.18-77.46,11.98-109.11-2.93-15.62-5.97-22.66.69-21.99,7.77.77,12.49,28.53,12.07,74.11-.6,62.38,8.41,84.59,35.43,87.28,37.03,3.68,71.29-36.28,74.2-65.53,4.35-43.69-56.31-72.9-55.06-85.49,1.26-12.59,64.93-13.73,72.08-85.56Zm-178.72-77.62c-8.75,3.25-16.78,8.21-23.61,14.48-4.75,4.37-8.92,9.38-12.35,14.89-8.36,13.43-12.09,29.49-10.49,45.23.42,4.12-2.58,7.8-6.7,8.22-.26.03-.52.04-.77.04-3.8,0-7.06-2.88-7.45-6.74-1.94-19.03,2.57-38.45,12.67-54.68,1.49-2.4,3.11-4.73,4.83-6.96,9.9-12.88,23.37-22.87,38.65-28.54,3.88-1.45,8.2.53,9.64,4.41,1.44,3.89-.54,8.2-4.42,9.65Zm44.05-9.14c-1.21,2.86-3.99,4.58-6.91,4.58-.97,0-1.97-.2-2.92-.6-3.63-1.54-7.87-1.76-11.63-.61-3.95,1.22-8.15-1.01-9.36-4.97-1.22-3.96,1.01-8.16,4.97-9.37,7.19-2.2,14.96-1.79,21.88,1.14,3.81,1.62,5.59,6.02,3.97,9.83Zm56.55,78.99c-2.8,28.14-19.86,41.77-25.78,41.18-5.56-.55,13.72-13.96,16.52-42.1s-13.46-45.09-7.9-44.53c5.92.59,19.96,17.31,17.16,45.45Z"/>
      <path class="cls-15" d="m1503.62,424.06c-2.8,28.14-19.86,41.77-25.78,41.18-5.56-.55,13.72-13.96,16.52-42.1s-13.46-45.09-7.9-44.53c5.92.59,19.96,17.31,17.16,45.45Z"/>
      <path class="cls-4" d="m1486.46,378.61c-5.56-.56,10.7,16.39,7.9,44.53s-22.08,41.55-16.52,42.1c5.92.59,22.98-13.04,25.78-41.18,2.8-28.14-11.24-44.86-17.16-45.45Zm0,0c-5.56-.56,10.7,16.39,7.9,44.53s-22.08,41.55-16.52,42.1c5.92.59,22.98-13.04,25.78-41.18,2.8-28.14-11.24-44.86-17.16-45.45Zm0,0c-5.56-.56,10.7,16.39,7.9,44.53s-22.08,41.55-16.52,42.1c5.92.59,22.98-13.04,25.78-41.18,2.8-28.14-11.24-44.86-17.16-45.45Zm0,0c-5.56-.56,10.7,16.39,7.9,44.53s-22.08,41.55-16.52,42.1c5.92.59,22.98-13.04,25.78-41.18,2.8-28.14-11.24-44.86-17.16-45.45Zm0,0c-5.56-.56,10.7,16.39,7.9,44.53s-22.08,41.55-16.52,42.1c5.92.59,22.98-13.04,25.78-41.18,2.8-28.14-11.24-44.86-17.16-45.45Zm0,0c-5.56-.56,10.7,16.39,7.9,44.53s-22.08,41.55-16.52,42.1c5.92.59,22.98-13.04,25.78-41.18,2.8-28.14-11.24-44.86-17.16-45.45Zm0,0c-5.56-.56,10.7,16.39,7.9,44.53s-22.08,41.55-16.52,42.1c5.92.59,22.98-13.04,25.78-41.18,2.8-28.14-11.24-44.86-17.16-45.45Zm0,0c-5.56-.56,10.7,16.39,7.9,44.53s-22.08,41.55-16.52,42.1c5.92.59,22.98-13.04,25.78-41.18,2.8-28.14-11.24-44.86-17.16-45.45Zm0,0c-5.56-.56,10.7,16.39,7.9,44.53s-22.08,41.55-16.52,42.1c5.92.59,22.98-13.04,25.78-41.18,2.8-28.14-11.24-44.86-17.16-45.45Zm0,0c-5.56-.56,10.7,16.39,7.9,44.53s-22.08,41.55-16.52,42.1c5.92.59,22.98-13.04,25.78-41.18,2.8-28.14-11.24-44.86-17.16-45.45Zm0,0c-5.56-.56,10.7,16.39,7.9,44.53s-22.08,41.55-16.52,42.1c5.92.59,22.98-13.04,25.78-41.18,2.8-28.14-11.24-44.86-17.16-45.45Zm0,0c-5.56-.56,10.7,16.39,7.9,44.53s-22.08,41.55-16.52,42.1c5.92.59,22.98-13.04,25.78-41.18,2.8-28.14-11.24-44.86-17.16-45.45Zm0,0c-5.56-.56,10.7,16.39,7.9,44.53s-22.08,41.55-16.52,42.1c5.92.59,22.98-13.04,25.78-41.18,2.8-28.14-11.24-44.86-17.16-45.45Zm0,0c-5.56-.56,10.7,16.39,7.9,44.53s-22.08,41.55-16.52,42.1c5.92.59,22.98-13.04,25.78-41.18,2.8-28.14-11.24-44.86-17.16-45.45Zm0,0c-5.56-.56,10.7,16.39,7.9,44.53s-22.08,41.55-16.52,42.1c5.92.59,22.98-13.04,25.78-41.18,2.8-28.14-11.24-44.86-17.16-45.45Zm0,0c-5.56-.56,10.7,16.39,7.9,44.53s-22.08,41.55-16.52,42.1c5.92.59,22.98-13.04,25.78-41.18,2.8-28.14-11.24-44.86-17.16-45.45Zm0,0c-5.56-.56,10.7,16.39,7.9,44.53s-22.08,41.55-16.52,42.1c5.92.59,22.98-13.04,25.78-41.18,2.8-28.14-11.24-44.86-17.16-45.45Zm0,0c-5.56-.56,10.7,16.39,7.9,44.53s-22.08,41.55-16.52,42.1c5.92.59,22.98-13.04,25.78-41.18,2.8-28.14-11.24-44.86-17.16-45.45Zm0,0c-5.56-.56,10.7,16.39,7.9,44.53s-22.08,41.55-16.52,42.1c5.92.59,22.98-13.04,25.78-41.18,2.8-28.14-11.24-44.86-17.16-45.45Zm0,0c-5.56-.56,10.7,16.39,7.9,44.53s-22.08,41.55-16.52,42.1c5.92.59,22.98-13.04,25.78-41.18,2.8-28.14-11.24-44.86-17.16-45.45Zm0,0c-5.56-.56,10.7,16.39,7.9,44.53s-22.08,41.55-16.52,42.1c5.92.59,22.98-13.04,25.78-41.18,2.8-28.14-11.24-44.86-17.16-45.45Zm0,0c-5.56-.56,10.7,16.39,7.9,44.53s-22.08,41.55-16.52,42.1c5.92.59,22.98-13.04,25.78-41.18,2.8-28.14-11.24-44.86-17.16-45.45Z"/>
      <path class="cls-2" d="m406.94,332.89l-7.98,2.55c-.76.24-1.53.36-2.29.36-.54,0-1.08-.06-1.6-.18-2.52-.55-4.69-2.4-5.54-5.04-1.26-3.95.92-8.17,4.86-9.43l.68-.22,7.31-2.33c3.94-1.26,8.16.92,9.42,4.86,1.26,3.95-.91,8.17-4.86,9.43Z"/>
      <path class="cls-2" d="m697.36,315.01c-.25,4.13-3.81,7.3-7.93,7.05-4-.24-8.03.27-11.84,1.5-1.23.38-2.42.85-3.59,1.38-1.01.46-2.07.68-3.11.68-.47,0-.93-.04-1.39-.14-2.32-.43-4.39-1.94-5.44-4.25-1.72-3.77-.06-8.22,3.71-9.94.57-.26,1.15-.51,1.73-.74,2.62-1.08,5.33-1.91,8.09-2.5,4.17-.89,8.46-1.22,12.72-.97,4.13.25,7.29,3.79,7.05,7.93Z"/>
      <path class="cls-2" d="m897.24,323.96c0,4.14-3.36,7.5-7.5,7.5h-1.5c-4.14,0-7.5-3.36-7.5-7.5s3.36-7.5,7.5-7.5h1.5c4.14,0,7.5,3.36,7.5,7.5Z"/>
      <path class="cls-2" d="m1126.2,354.54c-.94.46-1.87.94-2.79,1.46-19.05,10.58-31.87,31.7-32.2,53.54-.06,4.1-3.41,7.38-7.5,7.38h-.11c-4.15-.06-7.45-3.47-7.39-7.61.42-26.84,16.03-52.82,39.3-66.08,1.35-.77,2.72-1.5,4.12-2.18,3.73-1.82,8.22-.26,10.03,3.46,1.81,3.72.26,8.21-3.46,10.03Z"/>
      <path class="cls-2" d="m1173.9,338.94c-.66,4.09-4.51,6.87-8.59,6.21-6.31-1.02-12.88-.58-19,1.26-.72.22-1.45.32-2.17.32-3.22,0-6.2-2.09-7.18-5.33-1.19-3.97,1.05-8.15,5.02-9.35,8.28-2.5,17.17-3.09,25.72-1.71,4.08.66,6.87,4.51,6.2,8.6Z"/>
      <path class="cls-2" d="m1403.02,354.21c-8.75,3.25-16.78,8.21-23.61,14.48-4.75,4.37-8.92,9.38-12.35,14.89-8.36,13.43-12.09,29.49-10.49,45.23.42,4.12-2.58,7.8-6.7,8.22-.26.03-.52.04-.77.04-3.8,0-7.06-2.88-7.45-6.74-1.94-19.03,2.57-38.45,12.67-54.68,1.49-2.4,3.11-4.73,4.83-6.96,9.9-12.88,23.37-22.87,38.65-28.54,3.88-1.45,8.2.53,9.64,4.41,1.44,3.89-.54,8.2-4.42,9.65Z"/>
      <path class="cls-2" d="m1447.07,345.07c-1.21,2.86-3.99,4.58-6.91,4.58-.97,0-1.97-.2-2.92-.6-3.63-1.54-7.87-1.76-11.63-.61-3.95,1.22-8.15-1.01-9.36-4.97-1.22-3.96,1.01-8.16,4.97-9.37,7.19-2.2,14.96-1.79,21.88,1.14,3.81,1.62,5.59,6.02,3.97,9.83Z"/>
      <path class="cls-2" d="m69.48,358.62c-21.88,9.24-34.46,52.71-23.61,81.59,1.46,3.88-.5,8.21-4.38,9.66-.87.33-1.76.48-2.63.48-3.04,0-5.9-1.85-7.03-4.86-6.18-16.44-6.48-38.02-.81-57.71,6.08-21.12,17.97-36.79,32.63-42.98,3.81-1.61,8.21.18,9.83,4,1.61,3.81-.18,8.21-4,9.82Z"/>
      <path class="cls-2" d="m114.3,339.55c-.86,4.06-4.84,6.64-8.9,5.79-4.63-.99-9.74.33-13.33,3.42-1.42,1.22-3.16,1.82-4.89,1.82-2.11,0-4.21-.89-5.69-2.61-2.7-3.14-2.35-7.87.79-10.58,7.17-6.17,16.97-8.69,26.23-6.73,4.06.86,6.64,4.84,5.79,8.89Z"/>
    </g>
  </g>
</svg>